<?xml version="1.0" encoding="us-ascii" standalone="no"?><svg xmlns="http://www.w3.org/2000/svg" xmlns:xlink="http://www.w3.org/1999/xlink" contentStyleType="text/css" height="527px" preserveAspectRatio="none" style="width:509px;height:527px;background:#FFFFFF;" version="1.1" viewBox="0 0 509 527" width="509px" zoomAndPan="magnify"><defs/><g><ellipse cx="318.5" cy="16" fill="#222222" rx="10" ry="10" style="stroke:#222222;stroke-width:1.0;"/><g id="Idle"><rect fill="#F1F1F1" height="50" rx="12.5" ry="12.5" style="stroke:#181818;stroke-width:0.5;" width="50" x="293.5" y="87"/><line style="stroke:#181818;stroke-width:0.5;" x1="293.5" x2="343.5" y1="114.6094" y2="114.6094"/><text fill="#000000" font-family="sans-serif" font-size="14" lengthAdjust="spacing" textLength="22" x="307.5" y="106.5332">Idle</text></g><g id="Init"><rect fill="#F1F1F1" height="50" rx="12.5" ry="12.5" style="stroke:#181818;stroke-width:0.5;" width="50" x="65.5" y="215"/><line style="stroke:#181818;stroke-width:0.5;" x1="65.5" x2="115.5" y1="242.6094" y2="242.6094"/><text fill="#000000" font-family="sans-serif" font-size="14" lengthAdjust="spacing" textLength="18" x="81.5" y="234.5332">Init</text></g><g id="elem_GMN7"><path d="M109,90.5 L109,133.2031 A0,0 0 0 0 109,133.2031 L258,133.2031 A0,0 0 0 0 258,133.2031 L258,116 L293.5,112 L258,108 L258,100.5 L248,90.5 L109,90.5 A0,0 0 0 0 109,90.5 " fill="#FEFFDD" style="stroke:#181818;stroke-width:0.5;"/><path d="M248,90.5 L248,100.5 L258,100.5 L248,90.5 " fill="#FEFFDD" style="stroke:#181818;stroke-width:0.5;"/><text fill="#000000" font-family="sans-serif" font-size="13" lengthAdjust="spacing" textLength="128" x="115" y="108.9951">InOperation := FALSE</text><text fill="#000000" font-family="sans-serif" font-size="13" lengthAdjust="spacing" textLength="90" x="115" y="125.3467">Error := FALSE</text></g><g id="Error"><rect fill="#F1F1F1" height="50" rx="12.5" ry="12.5" style="stroke:#181818;stroke-width:0.5;" width="52" x="190.5" y="471"/><line style="stroke:#181818;stroke-width:0.5;" x1="190.5" x2="242.5" y1="498.6094" y2="498.6094"/><text fill="#000000" font-family="sans-serif" font-size="14" lengthAdjust="spacing" textLength="32" x="200.5" y="490.5332">Error</text></g><g id="InOp"><rect fill="#F1F1F1" height="50" rx="12.5" ry="12.5" style="stroke:#181818;stroke-width:0.5;" width="50" x="191.5" y="343"/><line style="stroke:#181818;stroke-width:0.5;" x1="191.5" x2="241.5" y1="370.6094" y2="370.6094"/><text fill="#000000" font-family="sans-serif" font-size="14" lengthAdjust="spacing" textLength="30" x="201.5" y="362.5332">InOp</text></g><g id="elem_GMN15"><path d="M151,218.5 L151,236 L115.55,240 L151,244 L151,261.2031 A0,0 0 0 0 151,261.2031 L300,261.2031 A0,0 0 0 0 300,261.2031 L300,228.5 L290,218.5 L151,218.5 A0,0 0 0 0 151,218.5 " fill="#FEFFDD" style="stroke:#181818;stroke-width:0.5;"/><path d="M290,218.5 L290,228.5 L300,228.5 L290,218.5 " fill="#FEFFDD" style="stroke:#181818;stroke-width:0.5;"/><text fill="#000000" font-family="sans-serif" font-size="13" lengthAdjust="spacing" textLength="128" x="157" y="236.9951">InOperation := FALSE</text><text fill="#000000" font-family="sans-serif" font-size="13" lengthAdjust="spacing" textLength="90" x="157" y="253.3467">Error := FALSE</text></g><g id="elem_GMN20"><path d="M277,346.5 L277,364 L241.57,368 L277,372 L277,389.2031 A0,0 0 0 0 277,389.2031 L418,389.2031 A0,0 0 0 0 418,389.2031 L418,356.5 L408,346.5 L277,346.5 A0,0 0 0 0 277,346.5 " fill="#FEFFDD" style="stroke:#181818;stroke-width:0.5;"/><path d="M408,346.5 L408,356.5 L418,356.5 L408,346.5 " fill="#FEFFDD" style="stroke:#181818;stroke-width:0.5;"/><text fill="#000000" font-family="sans-serif" font-size="13" lengthAdjust="spacing" textLength="120" x="283" y="364.9951">InOperation := TRUE</text><text fill="#000000" font-family="sans-serif" font-size="13" lengthAdjust="spacing" textLength="90" x="283" y="381.3467">Error := FALSE</text></g><g id="elem_GMN24"><path d="M6,474.5 L6,517.2031 A0,0 0 0 0 6,517.2031 L155,517.2031 A0,0 0 0 0 155,517.2031 L155,500 L190.13,496 L155,492 L155,484.5 L145,474.5 L6,474.5 A0,0 0 0 0 6,474.5 " fill="#FEFFDD" style="stroke:#181818;stroke-width:0.5;"/><path d="M145,474.5 L145,484.5 L155,484.5 L145,474.5 " fill="#FEFFDD" style="stroke:#181818;stroke-width:0.5;"/><text fill="#000000" font-family="sans-serif" font-size="13" lengthAdjust="spacing" textLength="128" x="12" y="492.9951">InOperation := FALSE</text><text fill="#000000" font-family="sans-serif" font-size="13" lengthAdjust="spacing" textLength="82" x="12" y="509.3467">Error := TRUE</text></g><!--link *start* to Idle--><g id="link_*start*_Idle"><path d="M318.5,26.01 C318.5,39.89 318.5,60.97 318.5,80.84 " fill="none" id="*start*-to-Idle" style="stroke:#181818;stroke-width:1.0;"/><polygon fill="#181818" points="318.5,86.84,322.5,77.84,318.5,81.84,314.5,77.84,318.5,86.84" style="stroke:#181818;stroke-width:1.0;"/></g><!--link Idle to Init--><g id="link_Idle_Init"><path d="M293.06,128.46 C287.4,131.54 281.34,134.57 275.5,137 C230.68,155.62 212.96,143.5 170.5,167 C148.1,179.4 130.9176,194.8144 115.9176,210.4944 " fill="none" id="Idle-to-Init" style="stroke:#181818;stroke-width:1.0;"/><polygon fill="#181818" points="111.77,214.83,120.8818,211.0916,115.2263,211.217,115.101,205.5615,111.77,214.83" style="stroke:#181818;stroke-width:1.0;"/><text fill="#000000" font-family="sans-serif" font-size="13" lengthAdjust="spacing" textLength="51" x="171.5" y="181.4951">Enable&#9312;</text></g><!--link Init to Idle--><g id="link_Init_Idle"><path d="M115.54,223.92 C121.33,220.75 127.54,217.58 133.5,215 C173.74,197.56 188.79,205.61 227.5,185 C251.69,172.13 271.3828,156.6043 288.7228,141.1343 " fill="none" id="Init-to-Idle" style="stroke:#181818;stroke-width:1.0;"/><polygon fill="#181818" points="293.2,137.14,283.8213,140.1467,289.469,140.4686,289.1471,146.1163,293.2,137.14" style="stroke:#181818;stroke-width:1.0;"/><text fill="#000000" font-family="sans-serif" font-size="13" lengthAdjust="spacing" textLength="51" x="255.5" y="181.4951">Enable&#9450;</text></g><!--link Init to Error--><g id="link_Init_Error"><path d="M91.88,265.21 C94.49,296.35 102.01,351.37 123.5,393 C139.99,424.94 164.6032,450.4752 185.8732,469.4552 " fill="none" id="Init-to-Error" style="stroke:#181818;stroke-width:1.0;"/><polygon fill="#181818" points="190.35,473.45,186.298,464.4733,186.6193,470.121,180.9716,470.4423,190.35,473.45" style="stroke:#181818;stroke-width:1.0;"/><text fill="#000000" font-family="sans-serif" font-size="13" lengthAdjust="spacing" textLength="48" x="124.5" y="373.4951">SetError</text></g><!--link Init to InOp--><g id="link_Init_InOp"><path d="M114.79,265.29 C137.11,287.61 165.7474,316.2474 188.0374,338.5374 " fill="none" id="Init-to-InOp" style="stroke:#181818;stroke-width:1.0;"/><polygon fill="#181818" points="192.28,342.78,188.7445,333.5876,188.7445,339.2445,183.0876,339.2445,192.28,342.78" style="stroke:#181818;stroke-width:1.0;"/></g><!--link InOp to Idle--><g id="link_InOp_Idle"><path d="M241.55,350.59 C266.13,332.85 302.12,302.06 317.5,265 C335.06,222.71 330.3282,173.836 324.7882,142.916 " fill="none" id="InOp-to-Idle" style="stroke:#181818;stroke-width:1.0;"/><polygon fill="#181818" points="323.73,137.01,321.38,146.5744,324.6118,141.9316,329.2546,145.1635,323.73,137.01" style="stroke:#181818;stroke-width:1.0;"/><text fill="#000000" font-family="sans-serif" font-size="13" lengthAdjust="spacing" textLength="51" x="328.5" y="245.4951">Enable&#9450;</text></g><!--link InOp to Error--><g id="link_InOp_Error"><path d="M216.5,393.29 C216.5,415.61 216.5,442.49 216.5,464.78 " fill="none" id="InOp-to-Error" style="stroke:#181818;stroke-width:1.0;"/><polygon fill="#181818" points="216.5,470.78,220.5,461.78,216.5,465.78,212.5,461.78,216.5,470.78" style="stroke:#181818;stroke-width:1.0;"/><text fill="#000000" font-family="sans-serif" font-size="13" lengthAdjust="spacing" textLength="48" x="217.5" y="437.4951">SetError</text></g><!--link Error to Idle--><g id="link_Error_Idle"><path d="M242.6,491.8 C290.67,484.33 392.22,460.91 435.5,393 C491.14,305.7 396.614,191.7504 347.724,141.5004 " fill="none" id="Error-to-Idle" style="stroke:#181818;stroke-width:1.0;"/><polygon fill="#181818" points="343.54,137.2,346.9491,146.44,347.0267,140.7837,352.683,140.8613,343.54,137.2" style="stroke:#181818;stroke-width:1.0;"/><text fill="#000000" font-family="sans-serif" font-size="13" lengthAdjust="spacing" textLength="51" x="450.5" y="309.4951">Enable&#9450;</text></g><!--SRC=[YzQALT3LjLFmJCb9vG8H45vUPec2bO9hNc9IJkgZYGkuyl9BKXLoKjDA5FBJ86eLWC0ppxyWjIYn93C_Jy7ALi7DqIVO5IpXMbIKNuGGIirBKG2PmCK5DXXc7yA6oQiGCb2z2i6f9M0caXwWTH2N56McPq2S0fGZsod-1RYS0fN1S0gwvK3tOB4y92YKWDqG2QoMeuGqn5RY_0Us5M450000]--></g></svg>