<?xml version="1.0" encoding="us-ascii" standalone="no"?><svg xmlns="http://www.w3.org/2000/svg" xmlns:xlink="http://www.w3.org/1999/xlink" contentStyleType="text/css" height="564px" preserveAspectRatio="none" style="width:583px;height:564px;background:#FFFFFF;" version="1.1" viewBox="0 0 583 564" width="583px" zoomAndPan="magnify"><defs/><g><ellipse cx="299" cy="16" fill="#222222" rx="10" ry="10" style="stroke:#222222;stroke-width:1.0;"/><g id="Idle"><rect fill="#F1F1F1" height="50" rx="12.5" ry="12.5" style="stroke:#181818;stroke-width:0.5;" width="50" x="274" y="91.5"/><line style="stroke:#181818;stroke-width:0.5;" x1="274" x2="324" y1="119.1094" y2="119.1094"/><text fill="#000000" font-family="sans-serif" font-size="14" lengthAdjust="spacing" textLength="22" x="288" y="111.0332">Idle</text></g><g id="Init"><rect fill="#F1F1F1" height="50" rx="12.5" ry="12.5" style="stroke:#181818;stroke-width:0.5;" width="50" x="193" y="228.5"/><line style="stroke:#181818;stroke-width:0.5;" x1="193" x2="243" y1="256.1094" y2="256.1094"/><text fill="#000000" font-family="sans-serif" font-size="14" lengthAdjust="spacing" textLength="18" x="209" y="248.0332">Init</text></g><g id="elem_GMN7"><path d="M121,87 L121,146.0547 A0,0 0 0 0 121,146.0547 L239,146.0547 A0,0 0 0 0 239,146.0547 L239,120.5 L273.7,116.5 L239,112.5 L239,97 L229,87 L121,87 A0,0 0 0 0 121,87 " fill="#FEFFDD" style="stroke:#181818;stroke-width:0.5;"/><path d="M229,87 L229,97 L239,97 L229,87 " fill="#FEFFDD" style="stroke:#181818;stroke-width:0.5;"/><text fill="#000000" font-family="sans-serif" font-size="13" lengthAdjust="spacing" textLength="92" x="127" y="105.4951">Done := FALSE</text><text fill="#000000" font-family="sans-serif" font-size="13" lengthAdjust="spacing" textLength="97" x="127" y="121.8467">Active := FALSE</text><text fill="#000000" font-family="sans-serif" font-size="13" lengthAdjust="spacing" textLength="90" x="127" y="138.1982">Error := FALSE</text></g><g id="Error"><rect fill="#F1F1F1" height="50" rx="12.5" ry="12.5" style="stroke:#181818;stroke-width:0.5;" width="52" x="159" y="502.5"/><line style="stroke:#181818;stroke-width:0.5;" x1="159" x2="211" y1="530.1094" y2="530.1094"/><text fill="#000000" font-family="sans-serif" font-size="14" lengthAdjust="spacing" textLength="32" x="169" y="522.0332">Error</text></g><g id="InOp"><rect fill="#F1F1F1" height="50" rx="12.5" ry="12.5" style="stroke:#181818;stroke-width:0.5;" width="50" x="196" y="365.5"/><line style="stroke:#181818;stroke-width:0.5;" x1="196" x2="246" y1="393.1094" y2="393.1094"/><text fill="#000000" font-family="sans-serif" font-size="14" lengthAdjust="spacing" textLength="30" x="206" y="385.0332">InOp</text></g><g id="elem_GMN14"><path d="M44.5,224 L44.5,283.0547 A0,0 0 0 0 44.5,283.0547 L157.5,283.0547 A0,0 0 0 0 157.5,283.0547 L157.5,257.5 L192.55,253.5 L157.5,249.5 L157.5,234 L147.5,224 L44.5,224 A0,0 0 0 0 44.5,224 " fill="#FEFFDD" style="stroke:#181818;stroke-width:0.5;"/><path d="M147.5,224 L147.5,234 L157.5,234 L147.5,224 " fill="#FEFFDD" style="stroke:#181818;stroke-width:0.5;"/><text fill="#000000" font-family="sans-serif" font-size="13" lengthAdjust="spacing" textLength="92" x="50.5" y="242.4951">Done := FALSE</text><text fill="#000000" font-family="sans-serif" font-size="13" lengthAdjust="spacing" textLength="89" x="50.5" y="258.8467">Active := TRUE</text><text fill="#000000" font-family="sans-serif" font-size="13" lengthAdjust="spacing" textLength="90" x="50.5" y="275.1982">Error := FALSE</text></g><g id="Done"><rect fill="#F1F1F1" height="50" rx="12.5" ry="12.5" style="stroke:#181818;stroke-width:0.5;" width="54" x="369" y="502.5"/><line style="stroke:#181818;stroke-width:0.5;" x1="369" x2="423" y1="530.1094" y2="530.1094"/><text fill="#000000" font-family="sans-serif" font-size="14" lengthAdjust="spacing" textLength="34" x="379" y="522.0332">Done</text></g><g id="elem_GMN20"><path d="M352.5,361 L352.5,386.5 L246.34,390.5 L352.5,394.5 L352.5,420.0547 A0,0 0 0 0 352.5,420.0547 L465.5,420.0547 A0,0 0 0 0 465.5,420.0547 L465.5,371 L455.5,361 L352.5,361 A0,0 0 0 0 352.5,361 " fill="#FEFFDD" style="stroke:#181818;stroke-width:0.5;"/><path d="M455.5,361 L455.5,371 L465.5,371 L455.5,361 " fill="#FEFFDD" style="stroke:#181818;stroke-width:0.5;"/><text fill="#000000" font-family="sans-serif" font-size="13" lengthAdjust="spacing" textLength="92" x="358.5" y="379.4951">Done := FALSE</text><text fill="#000000" font-family="sans-serif" font-size="13" lengthAdjust="spacing" textLength="89" x="358.5" y="395.8467">Active := TRUE</text><text fill="#000000" font-family="sans-serif" font-size="13" lengthAdjust="spacing" textLength="90" x="358.5" y="412.1982">Error := FALSE</text></g><g id="elem_GMN24"><path d="M6,498 L6,557.0547 A0,0 0 0 0 6,557.0547 L124,557.0547 A0,0 0 0 0 124,557.0547 L124,531.5 L158.82,527.5 L124,523.5 L124,508 L114,498 L6,498 A0,0 0 0 0 6,498 " fill="#FEFFDD" style="stroke:#181818;stroke-width:0.5;"/><path d="M114,498 L114,508 L124,508 L114,498 " fill="#FEFFDD" style="stroke:#181818;stroke-width:0.5;"/><text fill="#000000" font-family="sans-serif" font-size="13" lengthAdjust="spacing" textLength="92" x="12" y="516.4951">Done := FALSE</text><text fill="#000000" font-family="sans-serif" font-size="13" lengthAdjust="spacing" textLength="97" x="12" y="532.8467">Active := FALSE</text><text fill="#000000" font-family="sans-serif" font-size="13" lengthAdjust="spacing" textLength="82" x="12" y="549.1982">Error := TRUE</text></g><g id="elem_GMN28"><path d="M458,498 L458,523.5 L423.41,527.5 L458,531.5 L458,557.0547 A0,0 0 0 0 458,557.0547 L576,557.0547 A0,0 0 0 0 576,557.0547 L576,508 L566,498 L458,498 A0,0 0 0 0 458,498 " fill="#FEFFDD" style="stroke:#181818;stroke-width:0.5;"/><path d="M566,498 L566,508 L576,508 L566,498 " fill="#FEFFDD" style="stroke:#181818;stroke-width:0.5;"/><text fill="#000000" font-family="sans-serif" font-size="13" lengthAdjust="spacing" textLength="84" x="464" y="516.4951">Done := TRUE</text><text fill="#000000" font-family="sans-serif" font-size="13" lengthAdjust="spacing" textLength="97" x="464" y="532.8467">Active := FALSE</text><text fill="#000000" font-family="sans-serif" font-size="13" lengthAdjust="spacing" textLength="90" x="464" y="549.1982">Error := FALSE</text></g><!--link *start* to Idle--><g id="link_*start*_Idle"><path d="M299,26.09 C299,40.76 299,64.13 299,85.21 " fill="none" id="*start*-to-Idle" style="stroke:#181818;stroke-width:1.0;"/><polygon fill="#181818" points="299,91.21,303,82.21,299,86.21,295,82.21,299,91.21" style="stroke:#181818;stroke-width:1.0;"/></g><!--link Idle to Init--><g id="link_Idle_Init"><path d="M273.57,134.38 C249.45,150.51 216.66,172.83 215,176 C206.63,192.02 206.8326,206.7247 209.9626,222.5047 " fill="none" id="Idle-to-Init" style="stroke:#181818;stroke-width:1.0;"/><polygon fill="#181818" points="211.13,228.39,213.3025,218.7837,210.1572,223.4855,205.4554,220.3402,211.13,228.39" style="stroke:#181818;stroke-width:1.0;"/><text fill="#000000" font-family="sans-serif" font-size="13" lengthAdjust="spacing" textLength="56" x="216" y="190.4951">Execute&#8593;</text></g><!--link Init to Error--><g id="link_Init_Error"><path d="M192.62,275.08 C170.78,294.56 140.81,325.99 128,361 C109.72,410.94 139.5996,465.0455 162.5296,497.3855 " fill="none" id="Init-to-Error" style="stroke:#181818;stroke-width:1.0;"/><polygon fill="#181818" points="166,502.28,164.0575,492.6246,163.108,498.2012,157.5314,497.2518,166,502.28" style="stroke:#181818;stroke-width:1.0;"/><text fill="#000000" font-family="sans-serif" font-size="13" lengthAdjust="spacing" textLength="48" x="129" y="395.9951">SetError</text></g><!--link Init to InOp--><g id="link_Init_InOp"><path d="M218.54,278.64 C219.08,303.06 219.7754,334.6115 220.3254,359.1215 " fill="none" id="Init-to-InOp" style="stroke:#181818;stroke-width:1.0;"/><polygon fill="#181818" points="220.46,365.12,224.2571,356.0325,220.3478,360.1213,216.2591,356.212,220.46,365.12" style="stroke:#181818;stroke-width:1.0;"/></g><!--link InOp to Done--><g id="link_InOp_Done"><path d="M246.07,410.84 C278.68,436 330.6697,476.0946 364.2097,501.9746 " fill="none" id="InOp-to-Done" style="stroke:#181818;stroke-width:1.0;"/><polygon fill="#181818" points="368.96,505.64,364.2782,496.9751,365.0014,502.5855,359.391,503.3088,368.96,505.64" style="stroke:#181818;stroke-width:1.0;"/></g><!--link InOp to Error--><g id="link_InOp_Error"><path d="M200.18,415.75 C192.94,425.69 185.71,437.73 182,450 C176.88,466.92 177.0551,480.9684 179.2051,496.2684 " fill="none" id="InOp-to-Error" style="stroke:#181818;stroke-width:1.0;"/><polygon fill="#181818" points="180.04,502.21,182.7487,492.7409,179.3442,497.2586,174.8265,493.8542,180.04,502.21" style="stroke:#181818;stroke-width:1.0;"/><text fill="#000000" font-family="sans-serif" font-size="13" lengthAdjust="spacing" textLength="48" x="183" y="464.4951">SetError</text></g><!--link Error to Idle--><g id="link_Error_Idle"><path d="M210.92,502.34 C220.78,492.31 231.65,480.19 240,468 C253.37,448.49 256.4,442.72 263,420 C292.21,319.44 297.6521,199.4788 298.6721,147.5588 " fill="none" id="Error-to-Idle" style="stroke:#181818;stroke-width:1.0;"/><polygon fill="#181818" points="298.79,141.56,294.614,150.4797,298.6918,146.559,302.6125,150.6368,298.79,141.56" style="stroke:#181818;stroke-width:1.0;"/><text fill="#000000" font-family="sans-serif" font-size="13" lengthAdjust="spacing" textLength="59" x="287" y="327.4951">Execute&#9450;</text></g><!--link Done to Idle--><g id="link_Done_Idle"><path d="M423.05,503.4 C443.91,483.68 471.13,453.28 483,420 C491.81,395.3 491.34,385.86 483,361 C451.24,266.3 370.8876,183.1218 328.4076,143.6918 " fill="none" id="Done-to-Idle" style="stroke:#181818;stroke-width:1.0;"/><polygon fill="#181818" points="324.01,139.61,327.8851,148.6645,327.6746,143.0115,333.3276,142.801,324.01,139.61" style="stroke:#181818;stroke-width:1.0;"/><text fill="#000000" font-family="sans-serif" font-size="13" lengthAdjust="spacing" textLength="59" x="471" y="327.4951">Execute&#9450;</text></g><!--SRC=[YzQALT3LjLFmJCb9vG8H45vUPec2bO9hHMfoQKdgexQ9N7dv9QaAEQbf9GhvQH352a3Waf-Ngc1bg-3cw1Fi2XPnJ2x9B4CJSoqgoYz22ANcfIY0ZEFY0bi3iW-gGY4ujGJCHCXuvlaNe5aEb29eUKXGA46x_Gl0De2DGN0nd0Asl2WpFGDgEz0zbDiEaO05F59GJrw5wbk86yW8Qx0R41Q2TUEn3-v1a48K- -2U8I5g0G00]--></g></svg>