<?xml version="1.0" encoding="us-ascii" standalone="no"?><svg xmlns="http://www.w3.org/2000/svg" xmlns:xlink="http://www.w3.org/1999/xlink" contentStyleType="text/css" height="614px" preserveAspectRatio="none" style="width:796px;height:614px;background:#FFFFFF;" version="1.1" viewBox="0 0 796 614" width="796px" zoomAndPan="magnify"><defs/><g><ellipse cx="339.65" cy="16" fill="#222222" rx="10" ry="10" style="stroke:#222222;stroke-width:1.0;"/><g id="Idle"><rect fill="#F1F1F1" height="50" rx="12.5" ry="12.5" style="stroke:#181818;stroke-width:0.5;" width="50" x="314.65" y="87"/><line style="stroke:#181818;stroke-width:0.5;" x1="314.65" x2="364.65" y1="114.6094" y2="114.6094"/><text fill="#000000" font-family="sans-serif" font-size="14" lengthAdjust="spacing" textLength="22" x="328.65" y="106.5332">Idle</text></g><g id="Init"><rect fill="#F1F1F1" height="50" rx="12.5" ry="12.5" style="stroke:#181818;stroke-width:0.5;" width="50" x="86.65" y="215"/><line style="stroke:#181818;stroke-width:0.5;" x1="86.65" x2="136.65" y1="242.6094" y2="242.6094"/><text fill="#000000" font-family="sans-serif" font-size="14" lengthAdjust="spacing" textLength="18" x="102.65" y="234.5332">Init</text></g><g id="elem_GMN7"><path d="M130.15,90.5 L130.15,133.2031 A0,0 0 0 0 130.15,133.2031 L279.15,133.2031 A0,0 0 0 0 279.15,133.2031 L279.15,116 L314.65,112 L279.15,108 L279.15,100.5 L269.15,90.5 L130.15,90.5 A0,0 0 0 0 130.15,90.5 " fill="#FEFFDD" style="stroke:#181818;stroke-width:0.5;"/><path d="M269.15,90.5 L269.15,100.5 L279.15,100.5 L269.15,90.5 " fill="#FEFFDD" style="stroke:#181818;stroke-width:0.5;"/><text fill="#000000" font-family="sans-serif" font-size="13" lengthAdjust="spacing" textLength="128" x="136.15" y="108.9951">InOperation := FALSE</text><text fill="#000000" font-family="sans-serif" font-size="13" lengthAdjust="spacing" textLength="90" x="136.15" y="125.3467">Error := FALSE</text></g><g id="Error"><rect fill="#F1F1F1" height="50" rx="12.5" ry="12.5" style="stroke:#181818;stroke-width:0.5;" width="52" x="274.65" y="558"/><line style="stroke:#181818;stroke-width:0.5;" x1="274.65" x2="326.65" y1="585.6094" y2="585.6094"/><text fill="#000000" font-family="sans-serif" font-size="14" lengthAdjust="spacing" textLength="32" x="284.65" y="577.5332">Error</text></g><path d="M132.65,343 L469.15,343 A12.5,12.5 0 0 1 481.65,355.5 L481.65,370.6094 L120.15,370.6094 L120.15,355.5 A12.5,12.5 0 0 1 132.65,343 " fill="#F1F1F1" style="stroke:#F1F1F1;stroke-width:1.0;"/><rect fill="none" height="136.8594" rx="12.5" ry="12.5" style="stroke:#181818;stroke-width:0.5;" width="361.5" x="120.15" y="343"/><line style="stroke:#181818;stroke-width:0.5;" x1="120.15" x2="481.65" y1="370.6094" y2="370.6094"/><text fill="#000000" font-family="sans-serif" font-size="14" lengthAdjust="spacing" textLength="30" x="285.9" y="362.5332">InOp</text><g id="InOp.IsOpen"><rect fill="#F1F1F1" height="50" rx="12.5" ry="12.5" style="stroke:#181818;stroke-width:0.5;" width="65" x="132.15" y="419.8594"/><line style="stroke:#181818;stroke-width:0.5;" x1="132.15" x2="197.15" y1="447.4688" y2="447.4688"/><text fill="#000000" font-family="sans-serif" font-size="14" lengthAdjust="spacing" textLength="45" x="142.15" y="439.3926">IsOpen</text></g><g id="InOp.IsClosed"><rect fill="#F1F1F1" height="50" rx="12.5" ry="12.5" style="stroke:#181818;stroke-width:0.5;" width="74" x="328.65" y="419.8594"/><line style="stroke:#181818;stroke-width:0.5;" x1="328.65" x2="402.65" y1="447.4688" y2="447.4688"/><text fill="#000000" font-family="sans-serif" font-size="14" lengthAdjust="spacing" textLength="54" x="338.65" y="439.3926">IsClosed</text></g><g id="InOp.PartPresent"><rect fill="#F1F1F1" height="50" rx="12.5" ry="12.5" style="stroke:#181818;stroke-width:0.5;" width="95" x="215.15" y="419.8594"/><line style="stroke:#181818;stroke-width:0.5;" x1="215.15" x2="310.15" y1="447.4688" y2="447.4688"/><text fill="#000000" font-family="sans-serif" font-size="14" lengthAdjust="spacing" textLength="75" x="225.15" y="439.3926">PartPresent</text></g><g id="InOp.IsIdle"><rect fill="#F1F1F1" height="50" rx="12.5" ry="12.5" style="stroke:#181818;stroke-width:0.5;" width="52" x="420.65" y="419.8594"/><line style="stroke:#181818;stroke-width:0.5;" x1="420.65" x2="472.65" y1="447.4688" y2="447.4688"/><text fill="#000000" font-family="sans-serif" font-size="14" lengthAdjust="spacing" textLength="32" x="430.65" y="439.3926">IsIdle</text></g><!--link IsOpen to IsClosed--><g id="link_IsOpen_IsClosed"><path d="M190.99,419.7194 C197.58,414.8594 204.98,410.4694 212.65,407.8594 C255.14,393.3794 270.89,394.1994 313.65,407.8594 C321.78,410.4594 324.7622,411.46 331.8922,416.32 " fill="none" id="IsOpen-to-IsClosed" style="stroke:#181818;stroke-width:1.0;"/><polygon fill="#181818" points="336.85,419.6994,331.6662,411.3251,332.7185,416.8832,327.1604,417.9355,336.85,419.6994" style="stroke:#181818;stroke-width:1.0;"/></g><!--link IsOpen to PartPresent--><g id="link_IsOpen_PartPresent"><path d="M197.19,461.4894 C203.16,463.0294 203.1216,463.87 209.0916,463.73 " fill="none" id="IsOpen-to-PartPresent" style="stroke:#181818;stroke-width:1.0;"/><polygon fill="#181818" points="215.09,463.5894,205.9987,459.8015,210.0914,463.7066,206.1863,467.7993,215.09,463.5894" style="stroke:#181818;stroke-width:1.0;"/></g><!--link IsClosed to IsOpen--><g id="link_IsClosed_IsOpen"><path d="M343.59,419.8294 C333.66,410.4094 321.14,400.7994 307.65,395.8594 C270.5,382.2694 255.55,381.6094 218.65,395.8594 C205.9,400.7794 198.4911,405.9856 189.3411,415.3156 " fill="none" id="IsClosed-to-IsOpen" style="stroke:#181818;stroke-width:1.0;"/><polygon fill="#181818" points="185.14,419.5994,194.2975,415.9745,188.6409,416.0296,188.5858,410.373,185.14,419.5994" style="stroke:#181818;stroke-width:1.0;"/></g><!--link PartPresent to IsOpen--><g id="link_PartPresent_IsOpen"><path d="M215.09,426.1294 C209.12,425.9894 208.9698,425.1907 202.9998,426.7307 " fill="none" id="PartPresent-to-IsOpen" style="stroke:#181818;stroke-width:1.0;"/><polygon fill="#181818" points="197.19,428.2294,206.9038,429.8546,202.0315,426.9805,204.9056,422.1081,197.19,428.2294" style="stroke:#181818;stroke-width:1.0;"/></g><g id="elem_GMN15"><path d="M172.15,218.5 L172.15,236 L136.7,240 L172.15,244 L172.15,261.2031 A0,0 0 0 0 172.15,261.2031 L321.15,261.2031 A0,0 0 0 0 321.15,261.2031 L321.15,228.5 L311.15,218.5 L172.15,218.5 A0,0 0 0 0 172.15,218.5 " fill="#FEFFDD" style="stroke:#181818;stroke-width:0.5;"/><path d="M311.15,218.5 L311.15,228.5 L321.15,228.5 L311.15,218.5 " fill="#FEFFDD" style="stroke:#181818;stroke-width:0.5;"/><text fill="#000000" font-family="sans-serif" font-size="13" lengthAdjust="spacing" textLength="128" x="178.15" y="236.9951">InOperation := FALSE</text><text fill="#000000" font-family="sans-serif" font-size="13" lengthAdjust="spacing" textLength="90" x="178.15" y="253.3467">Error := FALSE</text></g><g id="elem_GMN20"><path d="M516.15,390 L516.15,407.5 L481.35,411.5 L516.15,415.5 L516.15,432.7031 A0,0 0 0 0 516.15,432.7031 L657.15,432.7031 A0,0 0 0 0 657.15,432.7031 L657.15,400 L647.15,390 L516.15,390 A0,0 0 0 0 516.15,390 " fill="#FEFFDD" style="stroke:#181818;stroke-width:0.5;"/><path d="M647.15,390 L647.15,400 L657.15,400 L647.15,390 " fill="#FEFFDD" style="stroke:#181818;stroke-width:0.5;"/><text fill="#000000" font-family="sans-serif" font-size="13" lengthAdjust="spacing" textLength="120" x="522.15" y="408.4951">InOperation := TRUE</text><text fill="#000000" font-family="sans-serif" font-size="13" lengthAdjust="spacing" textLength="90" x="522.15" y="424.8467">Error := FALSE</text></g><g id="elem_GMN24"><path d="M90.15,561.5 L90.15,604.2031 A0,0 0 0 0 90.15,604.2031 L239.15,604.2031 A0,0 0 0 0 239.15,604.2031 L239.15,587 L274.28,583 L239.15,579 L239.15,571.5 L229.15,561.5 L90.15,561.5 A0,0 0 0 0 90.15,561.5 " fill="#FEFFDD" style="stroke:#181818;stroke-width:0.5;"/><path d="M229.15,561.5 L229.15,571.5 L239.15,571.5 L229.15,561.5 " fill="#FEFFDD" style="stroke:#181818;stroke-width:0.5;"/><text fill="#000000" font-family="sans-serif" font-size="13" lengthAdjust="spacing" textLength="128" x="96.15" y="579.9951">InOperation := FALSE</text><text fill="#000000" font-family="sans-serif" font-size="13" lengthAdjust="spacing" textLength="82" x="96.15" y="596.3467">Error := TRUE</text></g><!--link *start* to Idle--><g id="link_*start*_Idle"><path d="M339.65,26.01 C339.65,39.89 339.65,60.97 339.65,80.84 " fill="none" id="*start*-to-Idle" style="stroke:#181818;stroke-width:1.0;"/><polygon fill="#181818" points="339.65,86.84,343.65,77.84,339.65,81.84,335.65,77.84,339.65,86.84" style="stroke:#181818;stroke-width:1.0;"/></g><!--link Idle to Init--><g id="link_Idle_Init"><path d="M314.21,128.46 C308.55,131.54 302.49,134.57 296.65,137 C251.83,155.62 234.11,143.5 191.65,167 C169.25,179.4 152.0561,194.813 137.0661,210.493 " fill="none" id="Idle-to-Init" style="stroke:#181818;stroke-width:1.0;"/><polygon fill="#181818" points="132.92,214.83,142.0305,211.0886,136.3751,211.2158,136.2479,205.5604,132.92,214.83" style="stroke:#181818;stroke-width:1.0;"/><text fill="#000000" font-family="sans-serif" font-size="13" lengthAdjust="spacing" textLength="51" x="192.65" y="181.4951">Enable&#9312;</text></g><!--link Init to Idle--><g id="link_Init_Idle"><path d="M136.69,223.92 C142.47,220.75 148.69,217.58 154.65,215 C194.88,197.56 209.94,205.61 248.65,185 C272.83,172.13 292.5217,156.6031 309.8717,141.1331 " fill="none" id="Init-to-Idle" style="stroke:#181818;stroke-width:1.0;"/><polygon fill="#181818" points="314.35,137.14,304.9705,140.144,310.6181,140.4676,310.2946,146.1152,314.35,137.14" style="stroke:#181818;stroke-width:1.0;"/><text fill="#000000" font-family="sans-serif" font-size="13" lengthAdjust="spacing" textLength="51" x="276.65" y="181.4951">Enable&#9450;</text></g><!--link Init to Error--><g id="link_Init_Error"><path d="M93.95,265.31 C62.87,311.24 6,412.23 52.65,480 C107.68,559.96 168.51,517.33 256.65,558 C262.49,560.7 263.3563,560.997 269.1363,564.107 " fill="none" id="Init-to-Error" style="stroke:#181818;stroke-width:1.0;"/><polygon fill="#181818" points="274.42,566.95,268.3897,559.1631,270.0169,564.5809,264.5991,566.208,274.42,566.95" style="stroke:#181818;stroke-width:1.0;"/><text fill="#000000" font-family="sans-serif" font-size="13" lengthAdjust="spacing" textLength="48" x="53.65" y="416.9951">SetError</text></g><!--link Init to InOp--><g id="link_Init_InOp"><path d="M136.74,263.51 C159.34,283.77 189.2635,310.6037 220.7135,338.8137 " fill="none" id="Init-to-InOp" style="stroke:#181818;stroke-width:1.0;"/><polygon fill="#181818" points="225.18,342.82,221.1512,333.8329,221.4579,339.4814,215.8094,339.7882,225.18,342.82" style="stroke:#181818;stroke-width:1.0;"/></g><!--link InOp to Idle--><g id="link_InOp_Idle"><path d="M322.08,342.73 C328.76,318.47 335.25,290.75 338.65,265 C344.56,220.13 343.3346,173.1507 341.6546,143.0707 " fill="none" id="InOp-to-Idle" style="stroke:#181818;stroke-width:1.0;"/><polygon fill="#181818" points="341.32,137.08,337.8281,146.2891,341.5988,142.0722,345.8157,145.8429,341.32,137.08" style="stroke:#181818;stroke-width:1.0;"/><text fill="#000000" font-family="sans-serif" font-size="13" lengthAdjust="spacing" textLength="51" x="342.65" y="245.4951">Enable&#9450;</text></g><!--link InOp to Error--><g id="link_InOp_Error"><path d="M300.65,480.47 C300.65,507.91 300.65,531.8 300.65,552 " fill="none" id="InOp-to-Error" style="stroke:#181818;stroke-width:1.0;"/><polygon fill="#181818" points="300.65,558,304.65,549,300.65,553,296.65,549,300.65,558" style="stroke:#181818;stroke-width:1.0;"/><text fill="#000000" font-family="sans-serif" font-size="13" lengthAdjust="spacing" textLength="48" x="301.65" y="524.4951">SetError</text></g><!--link Error to Idle--><g id="link_Error_Idle"><path d="M326.7,578.95 C404.35,569.28 631.45,536.56 674.65,480 C789.72,329.34 465.8621,169.3709 370.2921,126.3909 " fill="none" id="Error-to-Idle" style="stroke:#181818;stroke-width:1.0;"/><polygon fill="#181818" points="364.82,123.93,371.3875,131.2695,369.3801,125.9808,374.6688,123.9733,364.82,123.93" style="stroke:#181818;stroke-width:1.0;"/><text fill="#000000" font-family="sans-serif" font-size="13" lengthAdjust="spacing" textLength="51" x="652.65" y="309.4951">Enable&#9450;</text></g><!--SRC=[dP9D2i8m48NtESMiXLwWe21IeI2qM5s9YqYdMYX9IR8J3o5UmBN7yYJcJr9hHR6BqCoRUTzBo6QqXIYQG5esICpYTgnM44F2wAx1-_bA65S83LOAUELwGNyforeKLDMSGJo6-NHH95P8XE0Yb92LO1m8iSPFNY1SRa7nir2Wih-T6OrpIKIzFxWeMlixIjP-YkALjoXzkCup05yjrr_OJXY4lzoqe_vsFaiD2AceDh97EJe7gHqO6AQSDLnYsIldLAXSe4JchzItkH7JPSkTjfxYaTA-ZnDv0000]--></g></svg>